<?xml version="1.0" encoding="iso-8859-1"?>
<!-- Generator: Adobe Illustrator 19.0.0, SVG Export Plug-In . SVG Version: 6.00 Build 0)  -->
<svg version="1.1" id="Capa_1" xmlns="http://www.w3.org/2000/svg" xmlns:xlink="http://www.w3.org/1999/xlink" x="0px" y="0px"
	 viewBox="0 0 512 512" style="enable-background:new 0 0 512 512;" xml:space="preserve">
<path style="fill:#4DBBEB;" d="M437.02,74.98C388.668,26.629,324.381,0,256,0C187.62,0,123.333,26.629,74.981,74.98
	C26.629,123.332,0,187.62,0,256s26.629,132.667,74.981,181.019S187.62,512,256,512s132.668-26.629,181.02-74.981
	C485.371,388.667,512,324.38,512,256C512,187.619,485.371,123.332,437.02,74.98z"/>
<path style="fill:#2488FF;" d="M437.02,74.981C388.666,26.629,324.379,0,256,0h-0.001v512H256c68.38,0,132.667-26.628,181.02-74.979
	C485.371,388.668,512,324.381,512,256C512,187.62,485.371,123.333,437.02,74.981z"/>
<g>
	<path style="fill:#F2F2F2;" d="M256,126.404c3.95,0,7.81-1.609,10.601-4.399c2.8-2.79,4.399-6.65,4.399-10.601
		c0-3.95-1.6-7.819-4.399-10.609c-2.79-2.79-6.65-4.391-10.601-4.391c-3.949,0-7.819,1.601-10.609,4.391S241,107.454,241,111.404
		c0,3.95,1.601,7.811,4.391,10.601C248.181,124.795,252.051,126.404,256,126.404z"/>
	<path style="fill:#F2F2F2;" d="M256,192.799c-8.284,0-15,6.716-15,15V400.6c0,8.284,6.716,15,15,15s15-6.716,15-15V207.799
		C271,199.515,264.284,192.799,256,192.799z"/>
</g>
<g>
	<path style="fill:#D9D9D9;" d="M271,111.404c0-3.95-1.6-7.819-4.399-10.609c-2.79-2.79-6.65-4.391-10.601-4.391v30
		c3.95,0,7.81-1.609,10.601-4.399C269.4,119.215,271,115.354,271,111.404z"/>
	<path style="fill:#D9D9D9;" d="M256,192.799V415.6c8.284,0,15-6.716,15-15V207.799C271,199.515,264.284,192.799,256,192.799z"/>
</g>
<g>
</g>
<g>
</g>
<g>
</g>
<g>
</g>
<g>
</g>
<g>
</g>
<g>
</g>
<g>
</g>
<g>
</g>
<g>
</g>
<g>
</g>
<g>
</g>
<g>
</g>
<g>
</g>
<g>
</g>
</svg>
